<svg xmlns="http://www.w3.org/2000/svg" width="226.2" height="60.2" viewBox="0 0 226.2 60.2">
  <g id="logo" transform="translate(0 0.1)">
    <path id="Path_11928" d="M12.7,8.7a4,4,0,1,1,0,8h0C8.3,16.6,8,17,8,21.3a4,4,0,1,1-4-4H4c4.3,0,4.7-.4,4.7-4.7a3.992,3.992,0,0,1,4-3.9h0" fill="#d0bc5a"/>
    <path id="Path_11929" d="M12.7,34.7a4,4,0,1,1-4,4h0a4.012,4.012,0,0,1,4-4h0" fill="#d0bc5a"/>
    <path id="Path_11930" d="M4,26.1a4,4,0,1,1-4,4H0a3.949,3.949,0,0,1,4-4H4" fill="#d0bc5a"/>
    <path id="Path_11931" d="M12.7,52.1a4,4,0,1,1-4,4h0a3.949,3.949,0,0,1,4-4h0" fill="#d0bc5a"/>
    <path id="Path_11932" d="M25.3,12.6a4,4,0,1,1-4-4c4.3,0,4.7-.4,4.7-4.7a4,4,0,1,1,4,4c-4.3,0-4.7.4-4.7,4.7" fill="#d0bc5a"/>
    <path id="Path_11933" d="M26.1,21.3a4,4,0,1,1,4,4h0c-4.3,0-4.7.4-4.7,4.7a4,4,0,1,1-4-4c4.3,0,4.7-.3,4.7-4.7" fill="#d0bc5a"/>
    <path id="Path_11934" d="M26.1,30a4,4,0,1,1,4,4c-4.3,0-4.7.4-4.7,4.7a4,4,0,1,1-4-4c4.3,0,4.7-.4,4.7-4.7" fill="#d0bc5a"/>
    <path id="Path_11935" d="M26.1,38.7a4,4,0,1,1,4,4c-4.3,0-4.7.4-4.7,4.7a4,4,0,1,1-4-4c4.3,0,4.7-.4,4.7-4.7" fill="#d0bc5a"/>
    <path id="Path_11936" d="M59,28.8h7.9V40.2a19.46,19.46,0,0,1-5.5,2.5,21.628,21.628,0,0,1-6.2.9,17.085,17.085,0,0,1-7.7-1.8,13.672,13.672,0,0,1-5.4-5,14.639,14.639,0,0,1,0-14.6,13.672,13.672,0,0,1,5.4-5,17.617,17.617,0,0,1,7.9-1.8,19.394,19.394,0,0,1,7.1,1.3,13.242,13.242,0,0,1,5.2,3.9l-5.8,5.1a7.991,7.991,0,0,0-6-3,6.551,6.551,0,0,0-4.8,1.8,6.783,6.783,0,0,0-1.8,4.9A6.851,6.851,0,0,0,51,34.3a5.833,5.833,0,0,0,4.7,1.8,7.535,7.535,0,0,0,3.3-.7Z" fill="#fff"/>
    <path id="Path_11937" d="M81.8,36.2H79.3V43H70.2V16.1H83.1a16.293,16.293,0,0,1,6.5,1.2,9.908,9.908,0,0,1,4.8,13.2,2.994,2.994,0,0,1-.4.8,8.353,8.353,0,0,1-3.8,3.4L95.8,43H86.1Zm3.6-12.3a4.019,4.019,0,0,0-2.8-.8H79.3v6.3h3.3a4.019,4.019,0,0,0,2.8-.8,3.517,3.517,0,0,0,0-4.7" fill="#fff"/>
    <path id="Path_11938" d="M114.3,38.2H104.1l-1.8,4.7H93.1L104.8,16h8.9l11.7,26.9H116Zm-2.5-6.5-2.6-6.8-2.6,6.8Z" fill="#fff"/>
    <path id="Path_11939" d="M150.4,16.1,139,42.9h-8.9L118.7,16h9.8l6.4,15.7L141.5,16h8.9Z" fill="#fff"/>
    <rect id="Rectangle_2266" width="9.1" height="26.9" transform="translate(151.7 16.1)" fill="#fff"/>
    <path id="Path_11940" d="M171,23.1h-7.9v-7h24.8v7H180V42.9h-9Z" fill="#fff"/>
    <path id="Path_11941" d="M203,33.2V43h-9V33.1l-10.1-17h9.6l5.5,9.3,5.5-9.3h8.8Z" fill="#fff"/>
    <path id="Path_11942" d="M226.2,37.2h-5.9v5.7h-6.4V37.2H208V31.1h5.9V25.4h6.4v5.7h5.9Z" fill="#d0bc5a"/>
    <rect id="Rectangle_2267" width="226.2" height="60" fill="none"/>
  </g>
</svg>
