<svg xmlns="http://www.w3.org/2000/svg" xmlns:xlink="http://www.w3.org/1999/xlink" width="100.226" height="73.194" viewBox="0 0 100.226 73.194">
  <defs>
    <linearGradient id="linear-gradient" x1="0.5" x2="0.5" y2="1" gradientUnits="objectBoundingBox">
      <stop offset="0" stop-color="#bea01e" stop-opacity="0.259"/>
      <stop offset="1" stop-color="#bea01e" stop-opacity="0.631"/>
    </linearGradient>
  </defs>
  <g id="Group_634" data-name="Group 634" transform="translate(-764.764 -397.645)">
    <path id="Path_5078" data-name="Path 5078" d="M764.764,446.508a26.412,26.412,0,0,1,2.09-6.587,20.147,20.147,0,0,1,7.011-7.853,1.186,1.186,0,0,0,.6-1.582,13.906,13.906,0,0,1,13.383-17.7,11.615,11.615,0,0,1,3.856.509c.691.237,1.02.07,1.366-.581A27.243,27.243,0,0,1,811.913,398.3,27.835,27.835,0,0,1,842.04,411.85a27.142,27.142,0,0,1,3.345,10.035,1.127,1.127,0,0,0,1.019,1.09,24.315,24.315,0,0,1,1.661,46.8,21.077,21.077,0,0,1-6.248,1q-9.485.017-18.97,0c-1.417,0-1.421-.006-1.421-1.407q0-9.632,0-19.263c0-1.294.007-1.3,1.316-1.3,1.793,0,3.585-.019,5.378.005a2.27,2.27,0,0,0,2.313-1.132,2.391,2.391,0,0,0-.394-2.645q-5.078-7.006-10.143-14.022c-1.05-1.453-2.093-2.911-3.152-4.357-1.157-1.581-2.678-1.6-3.834-.007q-6.688,9.221-13.348,18.461a2.306,2.306,0,0,0-.384,2.551,2.277,2.277,0,0,0,2.307,1.15c1.89-.018,3.781.022,5.671-.016.792-.016,1.095.248,1.092,1.066q-.033,9.925,0,19.85c0,.82-.307,1.079-1.091,1.078-7.529-.016-15.065.176-22.586-.064-7.435-.237-12.857-4.136-16.726-10.333a23.481,23.481,0,0,1-3.083-8.792Z" transform="translate(0)" fill="url(#linear-gradient)"/>
  </g>
</svg>
