<svg xmlns="http://www.w3.org/2000/svg" width="57" height="57" viewBox="0 0 57 57">
  <g id="Group_643" data-name="Group 643" transform="translate(-1603 -32)">
    <circle id="Ellipse_500" data-name="Ellipse 500" cx="28.5" cy="28.5" r="28.5" transform="translate(1603 32)" fill="#fff"/>
    <g id="Group_556" data-name="Group 556" transform="translate(-44.852 -48.31)">
      <path id="Path_3935" data-name="Path 3935" d="M497,399.558a7.193,7.193,0,0,1,5.921-7.17l.308-.052a25.38,25.38,0,0,1,8.246,0l.308.052a7.193,7.193,0,0,1,5.921,7.17,2.749,2.749,0,0,1-2.7,2.794H499.7A2.749,2.749,0,0,1,497,399.558Z" transform="translate(1169 -280.732)" fill="none" stroke="#000" stroke-width="1.5"/>
      <path id="Path_3936" data-name="Path 3936" d="M511.993,386.824A6.042,6.042,0,1,1,505.955,381,5.934,5.934,0,0,1,511.993,386.824Z" transform="translate(1170.397 -286)" fill="none" stroke="#000" stroke-width="1.5"/>
    </g>
  </g>
</svg>
